<?xml version="1.0" standalone="no"?><!DOCTYPE svg PUBLIC "-//W3C//DTD SVG 1.1//EN" "http://www.w3.org/Graphics/SVG/1.1/DTD/svg11.dtd"><svg t="1737691992593" class="icon" viewBox="0 0 1024 1024" version="1.1" xmlns="http://www.w3.org/2000/svg" p-id="5985" xmlns:xlink="http://www.w3.org/1999/xlink" width="200" height="200"><path d="M605.248 166.528a144.170667 144.170667 0 0 0 85.12 35.253333c37.365333 2.474667 69.525333 15.050667 93.162667 38.688 33.813333 33.813333 44.992 85.045333 36.341333 144C867.690667 420.053333 896 464.202667 896 512c0 33.429333-13.845333 65.066667-38.517333 93.237333a144.170667 144.170667 0 0 0-35.264 85.12c-2.464 37.376-15.04 69.536-38.688 93.173334-33.813333 33.813333-85.045333 45.002667-144 36.341333C603.946667 867.690667 559.797333 896 512 896c-33.429333 0-65.066667-13.845333-93.237333-38.517333a144.181333 144.181333 0 0 0-85.12-35.253334c-37.365333-2.474667-69.525333-15.050667-93.173334-38.698666-23.637333-23.637333-36.224-55.797333-38.688-93.173334a144.170667 144.170667 0 0 0-35.264-85.12C141.845333 577.077333 128 545.429333 128 512c0-33.44 13.845333-65.066667 38.517333-93.237333a144.181333 144.181333 0 0 0 35.264-85.12c2.464-37.365333 15.04-69.525333 38.688-93.173334 23.648-23.637333 55.808-36.224 93.173334-38.688a144.170667 144.170667 0 0 0 85.12-35.253333C446.912 141.845333 478.549333 128 512 128s65.066667 13.845333 93.248 38.528z" fill="#086FE9" p-id="5986"></path><path d="M691.765333 180.501333c41.344 2.730667 78.784 16.832 106.848 44.885334 37.578667 37.578667 49.962667 91.530667 43.925334 149.696C887.946667 411.946667 917.333333 458.858667 917.333333 512c0 39.68-16.512 76.138667-43.808 107.306667a122.837333 122.837333 0 0 0-30.016 72.458666c-2.730667 41.344-16.832 78.794667-44.896 106.848-37.578667 37.578667-91.530667 49.962667-149.696 43.936C612.053333 887.936 565.141333 917.333333 512 917.333333c-39.68 0-76.138667-16.501333-107.296-43.808a122.837333 122.837333 0 0 0-72.469333-30.016c-41.333333-2.730667-78.784-16.832-106.848-44.896-28.053333-28.053333-42.165333-65.504-44.896-106.848a122.837333 122.837333 0 0 0-30.016-72.469333C123.168 588.138667 106.666667 551.68 106.666667 512c0-39.68 16.512-76.138667 43.808-107.306667a122.837333 122.837333 0 0 0 30.016-72.458666c2.730667-41.344 16.832-78.784 44.896-106.848 28.053333-28.053333 65.504-42.165333 106.848-44.896a122.837333 122.837333 0 0 0 72.469333-30.016C435.861333 123.168 472.309333 106.666667 512 106.666667c39.68 0 76.138667 16.512 107.306667 43.808a122.837333 122.837333 0 0 0 72.458666 30.026666z m-52.245333 639.370667c58.965333 8.661333 110.197333-2.528 144-36.341333 23.648-23.637333 36.234667-55.797333 38.698667-93.173334a144.170667 144.170667 0 0 1 35.264-85.12C882.154667 577.077333 896 545.429333 896 512c0-47.808-28.309333-91.946667-76.128-127.52 8.650667-58.965333-2.538667-110.197333-36.341333-144-23.637333-23.648-55.797333-36.224-93.162667-38.698667a144.170667 144.170667 0 0 1-85.12-35.253333C577.066667 141.845333 545.44 128 512 128c-33.44 0-65.066667 13.845333-93.248 38.528a144.170667 144.170667 0 0 1-85.12 35.253333c-37.354667 2.464-69.514667 15.050667-93.162667 38.688-23.637333 23.648-36.224 55.808-38.688 93.173334a144.181333 144.181333 0 0 1-35.264 85.12C141.845333 446.922667 128 478.56 128 512c0 33.429333 13.845333 65.066667 38.517333 93.237333a144.170667 144.170667 0 0 1 35.264 85.12c2.464 37.376 15.04 69.536 38.688 93.173334 23.648 23.648 55.808 36.224 93.173334 38.688a144.181333 144.181333 0 0 1 85.12 35.264C446.922667 882.154667 478.570667 896 512 896c47.808 0 91.946667-28.309333 127.52-76.128z" fill="#023E84" p-id="5987"></path><path d="M789.333333 512c0 153.173333-124.16 277.333333-277.333333 277.333333S234.666667 665.173333 234.666667 512s124.16-277.333333 277.333333-277.333333 277.333333 124.16 277.333333 277.333333z" fill="#0355B6" p-id="5988"></path><path d="M810.666667 512c0 164.949333-133.717333 298.666667-298.666667 298.666667S213.333333 676.949333 213.333333 512s133.717333-298.666667 298.666667-298.666667 298.666667 133.717333 298.666667 298.666667zM512 789.333333c153.173333 0 277.333333-124.16 277.333333-277.333333S665.173333 234.666667 512 234.666667 234.666667 358.826667 234.666667 512s124.16 277.333333 277.333333 277.333333z" fill="#023E84" p-id="5989"></path><path d="M512 213.333333c-164.949333 0-298.666667 133.717333-298.666667 298.666667s133.717333 298.666667 298.666667 298.666667 298.666667-133.717333 298.666667-298.666667-133.717333-298.666667-298.666667-298.666667zM192 512c0-176.736 143.264-320 320-320 176.736 0 320 143.264 320 320 0 176.736-143.264 320-320 320-176.736 0-320-143.264-320-320z" fill="#3D96FF" p-id="5990"></path><path d="M619.253333 337.002667c0 7.541333-5.973333 13.664-13.333333 13.664s-13.333333-6.122667-13.333333-13.664c0-7.552 5.973333-13.674667 13.333333-13.674667s13.333333 6.122667 13.333333 13.674667zM572.416 340.330667c0 9.386667-7.424 17.002667-16.576 17.002666-9.173333 0-16.586667-7.616-16.586667-17.002666 0-9.386667 7.424-16.992 16.586667-16.992 9.152 0 16.576 7.605333 16.576 16.992zM613.92 389.002667c0 9.386667-7.424 16.992-16.586667 16.992-9.152 0-16.586667-7.605333-16.586666-16.992s7.434667-17.002667 16.586666-17.002667c9.162667 0 16.586667 7.616 16.586667 17.002667zM651.84 365.834667c0 4.693333-3.722667 8.501333-8.298667 8.501333a8.394667 8.394667 0 0 1-8.288-8.501333c0-4.693333 3.712-8.501333 8.288-8.501334 4.586667 0 8.298667 3.808 8.298667 8.501334zM564.128 380.501333c0 4.693333-3.712 8.501333-8.298667 8.501334a8.394667 8.394667 0 0 1-8.288-8.501334c0-4.693333 3.712-8.501333 8.288-8.501333 4.586667 0 8.298667 3.808 8.298667 8.501333zM517.92 328.501333c0 4.693333-3.712 8.501333-8.298667 8.501334a8.394667 8.394667 0 0 1-8.288-8.501334c0-4.693333 3.712-8.501333 8.288-8.501333 4.586667 0 8.298667 3.808 8.298667 8.501333zM461.92 274.666667c0 4.693333-3.712 8.501333-8.298667 8.501333a8.394667 8.394667 0 0 1-8.288-8.501333c0-4.693333 3.712-8.501333 8.288-8.501334 4.586667 0 8.298667 3.808 8.298667 8.501334zM551.253333 306.165333c0 4.693333-3.712 8.501333-8.298666 8.501334a8.394667 8.394667 0 0 1-8.288-8.501334c0-4.693333 3.712-8.501333 8.288-8.501333 4.586667 0 8.298667 3.808 8.298666 8.501333zM731.253333 492.16c0 4.693333-3.712 8.501333-8.298666 8.501333a8.394667 8.394667 0 0 1-8.288-8.490666c0-4.693333 3.712-8.501333 8.288-8.501334 4.586667 0 8.298667 3.797333 8.298666 8.501334zM759.626667 411.338667c0 4.693333-3.712 8.490667-8.288 8.490666a8.394667 8.394667 0 0 1-8.298667-8.501333c0-4.693333 3.712-8.490667 8.298667-8.490667 4.576 0 8.288 3.797333 8.288 8.501334zM643.541333 425.173333c0 4.693333-3.712 8.490667-8.288 8.490667a8.394667 8.394667 0 0 1-8.298666-8.501333c0-4.693333 3.712-8.501333 8.298666-8.501334 4.586667 0 8.288 3.808 8.288 8.501334zM600.874667 433.664c0 4.693333-3.712 8.501333-8.288 8.501333a8.394667 8.394667 0 0 1-8.298667-8.501333c0-4.693333 3.712-8.501333 8.298667-8.501333 4.586667 0 8.288 3.808 8.288 8.501333zM683.573333 402.837333c0 7.637333-6.037333 13.834667-13.493333 13.834667s-13.493333-6.197333-13.493333-13.834667c0-7.648 6.037333-13.834667 13.493333-13.834666s13.493333 6.186667 13.493333 13.834666zM698.986667 333.834667c0 7.637333-6.037333 13.834667-13.493334 13.834666S672 341.482667 672 333.834667c0-7.637333 6.037333-13.834667 13.493333-13.834667s13.504 6.186667 13.504 13.834667zM728.16 389.002667c0 7.637333-6.037333 13.834667-13.493333 13.834666s-13.493333-6.197333-13.493334-13.834666c0-7.648 6.037333-13.834667 13.493334-13.834667s13.493333 6.186667 13.493333 13.834667zM764.832 460.330667c0 7.648-6.048 13.834667-13.493333 13.834666-7.466667 0-13.504-6.186667-13.504-13.834666 0-7.637333 6.048-13.834667 13.504-13.834667 7.445333 0 13.493333 6.197333 13.493333 13.834667zM657.034667 306.165333c0 7.637333-6.037333 13.834667-13.493334 13.834667s-13.493333-6.186667-13.493333-13.834667c0-7.637333 6.037333-13.834667 13.493333-13.834666s13.493333 6.186667 13.493334 13.834666zM597.333333 288.170667c0 7.637333-6.048 13.834667-13.504 13.834666-7.445333 0-13.493333-6.197333-13.493333-13.834666 0-7.648 6.048-13.834667 13.493333-13.834667 7.466667 0 13.504 6.186667 13.504 13.834667zM538.986667 266.165333c0 7.637333-6.037333 13.834667-13.493334 13.834667S512 273.813333 512 266.165333c0-7.637333 6.037333-13.834667 13.493333-13.834666s13.504 6.186667 13.504 13.834666zM701.173333 442.165333c0 4.693333-3.722667 8.501333-8.298666 8.501334a8.394667 8.394667 0 0 1-8.288-8.501334c0-4.693333 3.712-8.501333 8.288-8.501333 4.586667 0 8.298667 3.808 8.298666 8.501333z" fill="#034492" p-id="5991"></path><path d="M589.930667 323.861333c36.032-5.290667 67.338667 1.546667 88 22.208 20.661333 20.661333 27.498667 51.968 22.208 88C729.365333 455.808 746.666667 482.784 746.666667 512c0 29.226667-17.301333 56.192-46.528 77.930667 5.290667 36.032-1.546667 67.349333-22.208 88-20.661333 20.672-51.968 27.509333-88 22.208C568.192 729.365333 541.216 746.666667 512 746.666667c-29.226667 0-56.192-17.301333-77.930667-46.517334-36.032 5.290667-67.338667-1.546667-88-22.208-20.661333-20.661333-27.509333-51.978667-22.208-88C294.634667 568.181333 277.333333 541.205333 277.333333 512c0-29.226667 17.301333-56.192 46.528-77.930667-5.290667-36.032 1.546667-67.338667 22.208-88 20.661333-20.661333 51.968-27.498667 88-22.208C455.808 294.634667 482.773333 277.333333 512 277.333333c29.226667 0 56.192 17.301333 77.930667 46.528z" fill="#FFBB0D" p-id="5992"></path><path d="M597.557333 305.461333c35.52-3.2 69.013333 4.650667 92.672 28.32 23.669333 23.658667 31.530667 57.152 28.32 92.672 27.381333 22.837333 45.504 52.074667 45.504 85.546667s-18.122667 62.709333-45.504 85.557333c3.2 35.52-4.650667 69.013333-28.32 92.672-23.669333 23.669333-57.152 31.530667-92.672 28.32-22.848 27.381333-52.085333 45.504-85.546666 45.504-33.482667 0-62.72-18.122667-85.557334-45.504-35.52 3.2-69.013333-4.650667-92.672-28.32-23.68-23.669333-31.530667-57.152-28.32-92.672-27.381333-22.848-45.504-52.085333-45.504-85.546666 0-33.482667 18.122667-62.72 45.504-85.557334-3.210667-35.52 4.650667-69.013333 28.32-92.672 23.658667-23.669333 57.152-31.530667 92.661334-28.32C449.290667 278.08 478.528 259.946667 512 259.946667c33.472 0 62.72 18.122667 85.557333 45.504z m-7.626666 18.4C568.192 294.634667 541.226667 277.333333 512 277.333333s-56.192 17.301333-77.930667 46.528c-36.032-5.290667-67.338667 1.546667-88 22.208-20.661333 20.661333-27.498667 51.968-22.208 88C294.634667 455.808 277.333333 482.784 277.333333 512c0 29.226667 17.301333 56.192 46.528 77.930667-5.290667 36.042667 1.546667 67.349333 22.208 88 20.661333 20.672 51.968 27.509333 88 22.218666C455.808 729.376 482.784 746.666667 512 746.666667c29.226667 0 56.192-17.301333 77.930667-46.517334 36.042667 5.290667 67.349333-1.546667 88-22.208 20.672-20.661333 27.509333-51.968 22.218666-88C729.376 568.181333 746.666667 541.205333 746.666667 512c0-29.216-17.301333-56.192-46.517334-77.930667 5.290667-36.032-1.546667-67.338667-22.208-88-20.661333-20.661333-51.968-27.498667-88-22.208z" fill="#E89B05" p-id="5993"></path><path d="M729.28 503.306667c4.8 0 8.704 3.893333 8.704 8.693333 0 29.269333-16.501333 55.370667-42.506667 76 3.808 32.981333-2.986667 63.104-23.68 83.797333-20.693333 20.693333-50.816 27.488-83.797333 23.68-20.629333 26.016-46.730667 42.506667-76 42.506667a8.693333 8.693333 0 1 1 0-17.386667c23.349333 0 46.026667-13.813333 65.184-39.573333a8.693333 8.693333 0 0 1 8.245333-3.413333c31.765333 4.672 57.568-1.6 74.069334-18.112 16.512-16.501333 22.773333-42.304 18.112-74.069334a8.693333 8.693333 0 0 1 3.413333-8.245333c25.76-19.157333 39.573333-41.834667 39.573333-65.173333 0-4.8 3.893333-8.704 8.693334-8.704z" fill="#EEAD04" p-id="5994"></path><path d="M512 303.413333c-23.338667 0-46.016 13.802667-65.184 39.573334a8.693333 8.693333 0 0 1-8.234667 3.413333c-31.765333-4.672-57.568 1.6-74.08 18.101333-16.501333 16.512-22.773333 42.314667-18.101333 74.08a8.693333 8.693333 0 0 1-3.413333 8.234667c-25.770667 19.168-39.573333 41.845333-39.573334 65.184a8.693333 8.693333 0 0 1-17.386666 0c0-29.258667 16.490667-55.36 42.496-76-3.797333-32.970667 2.997333-63.093333 23.690666-83.786667 20.693333-20.693333 50.816-27.488 83.786667-23.68 20.629333-26.016 46.741333-42.506667 76-42.506666a8.693333 8.693333 0 0 1 0 17.386666z" fill="#FFD15C" p-id="5995"></path><path d="M569.728 372.64c26.698667-3.914667 49.888 1.152 65.194667 16.448 15.296 15.306667 20.373333 38.506667 16.448 65.194667 21.653333 16.106667 34.453333 36.074667 34.453333 57.717333 0 21.653333-12.8 41.632-34.453333 57.728 3.914667 26.698667-1.152 49.888-16.448 65.194667-15.306667 15.296-38.506667 20.373333-65.194667 16.448-16.106667 21.653333-36.085333 34.453333-57.728 34.453333s-41.621333-12.8-57.717333-34.453333c-26.698667 3.914667-49.888-1.141333-65.194667-16.448-15.306667-15.306667-20.373333-38.506667-16.448-65.194667-21.653333-16.106667-34.453333-36.085333-34.453333-57.728s12.8-41.621333 34.453333-57.717333c-3.914667-26.698667 1.141333-49.888 16.448-65.194667 15.306667-15.296 38.496-20.373333 65.184-16.448 16.106667-21.653333 36.085333-34.453333 57.728-34.453333 21.653333 0 41.632 12.8 57.728 34.453333z" fill="#FFDD28" p-id="5996"></path><path d="M389.088 634.912c-15.306667-15.296-20.373333-38.496-16.448-65.173333-21.653333-16.106667-34.464-36.096-34.464-57.738667 0-21.642667 12.810667-41.621333 34.453333-57.728-3.914667-26.688 1.152-49.877333 16.458667-65.184 15.306667-15.306667 38.496-20.373333 65.184-16.448 16.106667-21.653333 36.085333-34.464 57.728-34.464 21.653333 0 41.632 12.810667 57.728 34.453333 26.688-3.914667 49.888 1.152 65.184 16.458667 15.306667 15.306667 20.373333 38.496 16.458667 65.184 21.642667 16.106667 34.453333 36.085333 34.453333 57.728 0 21.653333-12.810667 41.621333-34.453333 57.728 3.914667 26.688-1.152 49.888-16.458667 65.184-15.296 15.306667-38.496 20.373333-65.184 16.458667-16.106667 21.642667-36.085333 34.453333-57.728 34.453333s-41.621333-12.810667-57.728-34.453333c-26.688 3.914667-49.877333-1.152-65.184-16.458667z m57.6 34.773333c-26.346667 1.898667-51.658667-4.245333-69.888-22.474666-18.24-18.24-24.384-43.552-22.474667-69.898667-19.978667-17.28-33.536-39.530667-33.536-65.312 0-25.781333 13.557333-48.032 33.536-65.312-1.909333-26.346667 4.234667-51.658667 22.474667-69.888 18.229333-18.24 43.541333-24.384 69.888-22.474667 17.28-19.978667 39.530667-33.536 65.312-33.536 25.781333 0 48.032 13.557333 65.312 33.536 26.346667-1.909333 51.669333 4.245333 69.898667 22.474667 18.229333 18.229333 24.373333 43.541333 22.464 69.888 19.978667 17.28 33.536 39.530667 33.536 65.312 0 25.781333-13.557333 48.032-33.536 65.312 1.909333 26.346667-4.234667 51.669333-22.464 69.898667-18.24 18.229333-43.552 24.373333-69.898667 22.464-17.28 19.978667-39.530667 33.536-65.312 33.536-25.781333 0-48.032-13.546667-65.312-33.536z" fill="#E89B05" p-id="5997"></path><path d="M668.448 503.306667c4.8 0 8.693333 3.893333 8.693333 8.693333 0 21.653333-11.978667 40.768-30.474666 55.786667 2.453333 23.690667-2.581333 45.674667-17.898667 60.992-15.306667 15.306667-37.290667 20.352-60.981333 17.888-15.018667 18.496-34.133333 30.474667-55.786667 30.474666a8.693333 8.693333 0 1 1 0-17.386666c15.765333 0 31.456-9.322667 44.981333-27.509334a8.693333 8.693333 0 0 1 8.234667-3.413333c22.432 3.296 40.106667-1.205333 51.264-12.352 11.146667-11.146667 15.648-28.832 12.352-51.264a8.693333 8.693333 0 0 1 3.413333-8.234667c18.186667-13.525333 27.52-29.216 27.52-44.981333 0-4.8 3.882667-8.693333 8.682667-8.693333z" fill="#ECC704" p-id="5998"></path><path d="M512 364.245333c-15.765333 0-31.456 9.322667-44.981333 27.52a8.693333 8.693333 0 0 1-8.234667 3.413334c-22.432-3.306667-40.106667 1.194667-51.264 12.341333-11.146667 11.157333-15.637333 28.832-12.352 51.264a8.693333 8.693333 0 0 1-3.413333 8.234667c-18.176 13.525333-27.509333 29.216-27.509334 44.981333a8.693333 8.693333 0 0 1-17.386666 0c0-21.653333 11.978667-40.757333 30.474666-55.786667-2.453333-23.690667 2.592-45.674667 17.898667-60.981333 15.306667-15.306667 37.290667-20.352 60.992-17.898667 15.018667-18.496 34.133333-30.464 55.776-30.464a8.693333 8.693333 0 0 1 0 17.386667z" fill="#FFEF9C" p-id="5999"></path><path d="M394.666667 484.266667l73.333333-14.933334 22.005333-37.333333L512 394.666667l44 74.666666L629.333333 484.266667 570.666667 544l14.666666 74.666667L512 581.333333 438.666667 618.666667l14.666666-74.666667-58.666666-59.733333z" fill="#FFEF9C" p-id="6000"></path><path d="M468 469.333333L512 394.666667l44 74.666666L629.333333 484.266667 570.666667 544l14.666666 74.666667L512 581.333333 438.666667 618.666667l14.666666-74.666667-58.666666-59.733333 73.333333-14.933334z m-37.76 81.6L379.434667 499.2a21.333333 21.333333 0 0 1 10.965333-35.84l64.032-13.045333 39.178667-66.485334a21.333333 21.333333 0 0 1 36.757333 0l39.178667 66.485334L633.6 463.36a21.333333 21.333333 0 0 1 10.965333 35.850667l-50.784 51.712 12.501334 63.626666a21.333333 21.333333 0 0 1-30.613334 23.125334L512 605.269333l-63.658667 32.405334a21.333333 21.333333 0 0 1-30.613333-23.114667l12.501333-63.637333z" fill="#E89B05" p-id="6001"></path></svg>