<?xml version="1.0" standalone="no"?><!DOCTYPE svg PUBLIC "-//W3C//DTD SVG 1.1//EN" "http://www.w3.org/Graphics/SVG/1.1/DTD/svg11.dtd"><svg t="1751191208076" class="icon" viewBox="0 0 1024 1024" version="1.1" xmlns="http://www.w3.org/2000/svg" p-id="6676" xmlns:xlink="http://www.w3.org/1999/xlink" width="200" height="200"><path d="M512.19 502.05v0.08l-257.12 144.1 3.67-294.74z" fill="#EDC7A3" p-id="6677"></path><path d="M515.86 207.3l-3.67 294.75-253.45-150.56z" fill="#EEC6A1" p-id="6678"></path><path d="M769.32 357.86v0.09l-257.13 144.1 3.67-294.75z" fill="#FCF0E4" p-id="6679"></path><path d="M769.32 357.95l-3.67 294.74-253.46-150.64z" fill="#EFB289" p-id="6680"></path><path d="M765.65 652.69L508.53 796.87l3.66-294.74v-0.08z" fill="#D8A278" p-id="6681"></path><path d="M512.19 502.13l-3.66 294.74-253.46-150.55v-0.09z" fill="#D9A47A" p-id="6682"></path><path d="M512.19 780.38L273.13 641V363.18L512.19 223.8l239.07 139.38V641L512.19 780.38zM282.38 636.55l229.81 133.99L742 636.55V367.62L512.19 233.63 282.38 367.62v268.93z" fill="#B41847" p-id="6683"></path><path d="M512.17 233.55v81.73l-160.2 93.42-70.1-40.89z" fill="#E26D81" p-id="6684"></path><path d="M742.48 367.81l-70.05 40.89-41.22-24.05-119.04-69.37v-81.73z" fill="#F2A8B4" p-id="6685"></path><path d="M742.48 367.81v268.56l-70.05-40.89V408.7z" fill="#CE497B" p-id="6686"></path><path d="M742.48 636.37L512.17 770.63V688.9l160.26-93.42z" fill="#D34480" p-id="6687"></path><path d="M512.17 688.9v81.73l-230.3-134.26 70.1-40.89 152.38 88.85z" fill="#B12650" p-id="6688"></path><path d="M351.97 408.7v186.78l-70.1 40.89V367.81z" fill="#CE497B" p-id="6689"></path><path d="M672.43 408.7v186.78L512.17 688.9l-7.82-4.57 126.86-299.68z" fill="#DF5C81" p-id="6690"></path><path d="M631.21 384.65L504.35 684.33l-152.38-88.85V408.7l160.2-93.42z" fill="#EFADBE" p-id="6691"></path><path d="M221.9 329.58l-4.19 337.6v0.08l-37.44 20.95 4.8-380.53z" fill="#EDC7A3" p-id="6692"></path><path d="M258.74 351.49l-3.67 294.74v0.09l-37.36 20.86 4.19-337.6z" fill="#F2C094" p-id="6693"></path><path d="M508 839.73l-0.52 42.85-327.21-194.37 37.44-20.95z" fill="#D9A47A" p-id="6694"></path><path d="M508.53 796.87l-0.53 42.86-290.29-172.47v-0.08l37.36-20.86z" fill="#E3B68C" p-id="6695"></path><path d="M839.31 696.41L507.48 882.58l0.52-42.85 294.48-165.22z" fill="#D8A278" p-id="6696"></path><path d="M844.12 315.97l-4.81 380.44-36.83-21.9L806.67 337v-0.09z" fill="#EFB289" p-id="6697"></path><path d="M844.12 315.97l-37.45 20.94-290.29-172.46 0.53-42.85z" fill="#FCF0E4" p-id="6698"></path><path d="M516.91 121.6l-0.53 42.85L221.9 329.58l-36.83-21.9z" fill="#EEC6A1" p-id="6699"></path><path d="M516.38 164.45l-0.52 42.85-257.12 144.19-36.84-21.91z" fill="#A97540" p-id="6700"></path><path d="M802.48 674.51L508 839.73l0.53-42.86 257.12-144.18z" fill="#F9DAB4" p-id="6701"></path><path d="M806.67 337l-4.19 337.51-36.83-21.82 3.67-294.74v-0.09z" fill="#D28B56" p-id="6702"></path><path d="M806.67 336.91v0.09l-37.35 20.86L515.86 207.3l0.52-42.85z" fill="#D39868" p-id="6703"></path><path d="M442.9 848.16l63.91 43.23V763.7z" fill="#F4CBA7" p-id="6704"></path><path d="M506.81 763.7v127.69l67.35-43.23z" fill="#CC854C" p-id="6705"></path><path d="M243.28 268.35L173.7 301.7l110.23 64.45z" fill="#F4CBA7" p-id="6706"></path><path d="M283.93 366.15L173.7 301.7l3.33 79.96z" fill="#CC854C" p-id="6707"></path><path d="M782.14 274.65l69.58 33.34-110.24 64.46z" fill="#F4CBA7" p-id="6708"></path><path d="M741.48 372.45l110.24-64.46-3.33 79.97z" fill="#CC854C" p-id="6709"></path></svg>